<svg width="184" height="184" xmlns="http://www.w3.org/2000/svg" xmlns:xlink="http://www.w3.org/1999/xlink" overflow="hidden"><defs><clipPath id="clip0"><rect x="1010" y="81" width="184" height="184"/></clipPath><clipPath id="clip1"><rect x="1010" y="81" width="183" height="183"/></clipPath><clipPath id="clip2"><rect x="1010" y="81" width="183" height="183"/></clipPath></defs><g clip-path="url(#clip0)" transform="translate(-1010 -81)"><g clip-path="url(#clip1)"><g clip-path="url(#clip2)"><text fill="#E2F0D9" font-family="Aspergit,Aspergit_MSFontService,sans-serif" font-weight="400" font-size="661" transform="matrix(0.51931 0 0 0.519323 994.94 258)">a</text><path d="M255.428 284.336 303.88 250.077 311.586 298.719Z" fill="#E2F0D9" fill-rule="evenodd" transform="matrix(1 0 0 1.00003 873.645 -38.5574)"/><path d="M181.239 190.846C181.239 189.842 182.053 189.029 183.057 189.029L272.378 189.029C273.382 189.029 274.195 189.842 274.195 190.846L274.195 198.117C274.195 199.12 273.382 199.934 272.378 199.934L183.057 199.934C182.053 199.934 181.239 199.12 181.239 198.117Z" fill="#E2F0D9" fill-rule="evenodd" transform="matrix(1 0 0 1.00003 873.645 -38.5574)"/><path d="M181.239 214.821C181.239 213.77 182.092 212.917 183.143 212.917L226.073 212.917C227.124 212.917 227.977 213.77 227.977 214.821L227.977 222.437C227.977 223.489 227.124 224.342 226.073 224.342L183.143 224.342C182.092 224.342 181.239 223.489 181.239 222.437Z" fill="#E2F0D9" fill-rule="evenodd" transform="matrix(1 0 0 1.00003 873.645 -38.5574)"/><path d="M244.595 213.696C244.595 212.692 245.409 211.878 246.412 211.878L262.511 211.878C263.515 211.878 264.329 212.692 264.329 213.696L264.329 220.966C264.329 221.97 263.515 222.784 262.511 222.784L246.412 222.784C245.409 222.784 244.595 221.97 244.595 220.966Z" fill="#E2F0D9" fill-rule="evenodd" transform="matrix(1 0 0 1.00003 873.645 -38.5574)"/></g></g></g></svg>