<svg width="184" height="184" xmlns="http://www.w3.org/2000/svg" xmlns:xlink="http://www.w3.org/1999/xlink" overflow="hidden"><defs><clipPath id="clip0"><rect x="812" y="382" width="184" height="184"/></clipPath><clipPath id="clip1"><rect x="813" y="383" width="182" height="182"/></clipPath><clipPath id="clip2"><rect x="813" y="383" width="182" height="182"/></clipPath></defs><g clip-path="url(#clip0)" transform="translate(-812 -382)"><g clip-path="url(#clip1)"><g clip-path="url(#clip2)"><text fill="#FFC0CB" font-family="Aspergit,Aspergit_MSFontService,sans-serif" font-weight="400" font-size="661" transform="matrix(0.516472 0 0 0.516485 798.023 559)">a</text><path d="M254.032 282.782 302.219 248.71 309.883 297.087Z" fill="#FFC0CB" fill-rule="evenodd" transform="matrix(1 0 0 1.00003 677.39 264.096)"/><path d="M180.249 189.803C180.249 188.805 181.058 187.996 182.056 187.996L270.889 187.996C271.888 187.996 272.697 188.805 272.697 189.803L272.697 197.034C272.697 198.032 271.888 198.842 270.889 198.842L182.056 198.842C181.058 198.842 180.249 198.032 180.249 197.034Z" fill="#FFC0CB" fill-rule="evenodd" transform="matrix(1 0 0 1.00003 677.39 264.096)"/><path d="M180.249 213.647C180.249 212.601 181.097 211.753 182.143 211.753L224.837 211.753C225.883 211.753 226.731 212.601 226.731 213.647L226.731 221.222C226.731 222.268 225.883 223.116 224.837 223.116L182.143 223.116C181.097 223.116 180.249 222.268 180.249 221.222Z" fill="#FFC0CB" fill-rule="evenodd" transform="matrix(1 0 0 1.00003 677.39 264.096)"/><path d="M243.258 212.528C243.258 211.53 244.068 210.72 245.066 210.72L261.077 210.72C262.075 210.72 262.884 211.53 262.884 212.528L262.884 219.759C262.884 220.757 262.075 221.566 261.077 221.566L245.066 221.566C244.068 221.566 243.258 220.757 243.258 219.759Z" fill="#FFC0CB" fill-rule="evenodd" transform="matrix(1 0 0 1.00003 677.39 264.096)"/></g></g></g></svg>