<svg width="184" height="184" xmlns="http://www.w3.org/2000/svg" xmlns:xlink="http://www.w3.org/1999/xlink" overflow="hidden"><defs><clipPath id="clip0"><rect x="700" y="37" width="184" height="184"/></clipPath><clipPath id="clip1"><rect x="701" y="38" width="182" height="182"/></clipPath><clipPath id="clip2"><rect x="701" y="37" width="182" height="183"/></clipPath></defs><g clip-path="url(#clip0)" transform="translate(-700 -37)"><g clip-path="url(#clip1)"><g clip-path="url(#clip2)"><text font-family="Aspergit,Aspergit_MSFontService,sans-serif" font-weight="400" font-size="661" transform="matrix(0.516856 0 0 0.516856 686.166 214)">a</text><path d="M819.665 202.082 867.888 167.985 875.557 216.398Z" fill-rule="evenodd"/><path d="M736.523 116.715C736.523 114.383 738.413 112.494 740.744 112.494L761.246 112.494C763.577 112.494 765.467 114.383 765.467 116.715L765.467 133.599C765.467 135.93 763.577 137.82 761.246 137.82L740.744 137.82C738.413 137.82 736.523 135.93 736.523 133.599Z" fill-rule="evenodd"/><path d="M775.287 116.715C775.287 114.383 777.177 112.494 779.508 112.494L799.493 112.494C801.825 112.494 803.714 114.383 803.714 116.715L803.714 133.599C803.714 135.93 801.825 137.82 799.493 137.82L779.508 137.82C777.177 137.82 775.287 135.93 775.287 133.599Z" fill-rule="evenodd"/><path d="M813.018 116.715C813.018 114.383 814.907 112.494 817.239 112.494L837.74 112.494C840.072 112.494 841.962 114.383 841.962 116.715L841.962 133.599C841.962 135.93 840.072 137.82 837.74 137.82L817.239 137.82C814.907 137.82 813.018 135.93 813.018 133.599Z" fill-rule="evenodd"/></g></g></g></svg>