<svg width="434" height="606" xmlns="http://www.w3.org/2000/svg" xmlns:xlink="http://www.w3.org/1999/xlink" overflow="hidden"><defs><clipPath id="clip0"><rect x="268" y="114" width="434" height="606"/></clipPath><clipPath id="clip1"><rect x="269" y="115" width="432" height="605"/></clipPath><clipPath id="clip2"><rect x="269" y="115" width="432" height="605"/></clipPath></defs><g clip-path="url(#clip0)" transform="translate(-268 -114)"><g clip-path="url(#clip1)"><g clip-path="url(#clip2)"><path d="M485.977 250.352 220.899 250.352 220.899 132.539 485.977 132.539 485.977 250.352ZM485.977 353.438 441.797 353.438 441.797 309.258 485.977 309.258 485.977 353.438ZM485.977 427.071 441.797 427.071 441.797 382.891 485.977 382.891 485.977 427.071ZM485.977 500.704 441.797 500.704 441.797 456.524 485.977 456.524 485.977 500.704ZM485.977 574.336 441.797 574.336 441.797 530.157 485.977 530.157 485.977 574.336ZM412.344 353.438 368.164 353.438 368.164 309.258 412.344 309.258 412.344 353.438ZM412.344 427.071 368.164 427.071 368.164 382.891 412.344 382.891 412.344 427.071ZM412.344 500.704 368.164 500.704 368.164 456.524 412.344 456.524 412.344 500.704ZM412.344 574.336 368.164 574.336 368.164 530.157 412.344 530.157 412.344 574.336ZM338.711 353.438 294.532 353.438 294.532 309.258 338.711 309.258 338.711 353.438ZM338.711 427.071 294.532 427.071 294.532 382.891 338.711 382.891 338.711 427.071ZM338.711 500.704 294.532 500.704 294.532 456.524 338.711 456.524 338.711 500.704ZM338.711 574.336 220.899 574.336 220.899 530.157 338.711 530.157 338.711 574.336ZM220.899 456.524 265.078 456.524 265.078 500.704 220.899 500.704 220.899 456.524ZM220.899 382.891 265.078 382.891 265.078 427.071 220.899 427.071 220.899 382.891ZM220.899 309.258 265.078 309.258 265.078 353.438 220.899 353.438 220.899 309.258ZM530.157 58.9063 176.719 58.9063C160.52 58.9063 147.266 72.1602 147.266 88.3595L147.266 618.516C147.266 634.715 160.52 647.969 176.719 647.969L530.157 647.969C546.356 647.969 559.61 634.715 559.61 618.516L559.61 88.3595C559.61 72.1602 546.356 58.9063 530.157 58.9063Z" fill="#171745" transform="matrix(1 0 0 1.00026 131.548 66.9838)"/></g></g></g></svg>