<svg width="594" height="460" xmlns="http://www.w3.org/2000/svg" xmlns:xlink="http://www.w3.org/1999/xlink" overflow="hidden"><defs><filter id="fx0" x="-10%" y="-10%" width="120%" height="120%" filterUnits="userSpaceOnUse" primitiveUnits="userSpaceOnUse"><feComponentTransfer color-interpolation-filters="sRGB"><feFuncR type="discrete" tableValues="0 0"/><feFuncG type="discrete" tableValues="0 0"/><feFuncB type="discrete" tableValues="0 0"/><feFuncA type="linear" slope="0.4" intercept="0"/></feComponentTransfer><feGaussianBlur stdDeviation="1.77778 1.77778"/></filter><clipPath id="clip1"><rect x="25" y="84" width="594" height="460"/></clipPath><clipPath id="clip2"><rect x="-2" y="-2" width="599" height="465"/></clipPath><clipPath id="clip3"><rect x="0" y="0" width="596" height="462"/></clipPath><linearGradient x1="515.811" y1="293.598" x2="492.405" y2="222.76" gradientUnits="userSpaceOnUse" spreadMethod="reflect" id="fill4"><stop offset="0" stop-color="#FF9933"/><stop offset="0.0096" stop-color="#FF9A32"/><stop offset="0.0192" stop-color="#FF9B32"/><stop offset="0.0288" stop-color="#FF9D32"/><stop offset="0.0384" stop-color="#FF9E32"/><stop offset="0.048" stop-color="#FF9F32"/><stop offset="0.0576" stop-color="#FFA132"/><stop offset="0.0672" stop-color="#FFA231"/><stop offset="0.0768" stop-color="#FFA331"/><stop offset="0.0864" stop-color="#FFA530"/><stop offset="0.096" stop-color="#FFA630"/><stop offset="0.1056" stop-color="#FFA730"/><stop offset="0.1152" stop-color="#FFA82F"/><stop offset="0.1248" stop-color="#FFA92E"/><stop offset="0.1344" stop-color="#FFAA2E"/><stop offset="0.144" stop-color="#FFAC2D"/><stop offset="0.1536" stop-color="#FFAD2C"/><stop offset="0.1632" stop-color="#FFAE2C"/><stop offset="0.1728" stop-color="#FFAF2B"/><stop offset="0.1824" stop-color="#FFB02A"/><stop offset="0.192" stop-color="#FFB129"/><stop offset="0.2016" stop-color="#FFB128"/><stop offset="0.2112" stop-color="#FFB228"/><stop offset="0.2208" stop-color="#FFB327"/><stop offset="0.2304" stop-color="#FFB426"/><stop offset="0.24" stop-color="#FFB525"/><stop offset="0.2496" stop-color="#FFB624"/><stop offset="0.2592" stop-color="#FFB622"/><stop offset="0.2688" stop-color="#FFB721"/><stop offset="0.2784" stop-color="#FFB820"/><stop offset="0.288" stop-color="#FFB91F"/><stop offset="0.2976" stop-color="#FFB91E"/><stop offset="0.3072" stop-color="#FFBA1C"/><stop offset="0.3168" stop-color="#FFBA1B"/><stop offset="0.3264" stop-color="#FFBB1A"/><stop offset="0.336" stop-color="#FFBB18"/><stop offset="0.3456" stop-color="#FFBC17"/><stop offset="0.3552" stop-color="#FFBC16"/><stop offset="0.3648" stop-color="#FFBD14"/><stop offset="0.3744" stop-color="#FFBD12"/><stop offset="0.384" stop-color="#FFBE11"/><stop offset="0.3936" stop-color="#FFBE0F"/><stop offset="0.4032" stop-color="#FFBE0E"/><stop offset="0.4128" stop-color="#FFBF0C"/><stop offset="0.4224" stop-color="#FFBF0A"/><stop offset="0.432" stop-color="#FFBF09"/><stop offset="0.4416" stop-color="#FFBF07"/><stop offset="0.4512" stop-color="#FFBF05"/><stop offset="0.4608" stop-color="#FFBF03"/><stop offset="0.4704" stop-color="#FFBF01"/><stop offset="0.48" stop-color="#FFC000"/><stop offset="0.4904" stop-color="#FFBF01"/><stop offset="0.5008" stop-color="#FFBF03"/><stop offset="0.5112" stop-color="#FFBF05"/><stop offset="0.5216" stop-color="#FFBF07"/><stop offset="0.532" stop-color="#FFBF09"/><stop offset="0.5424" stop-color="#FFBF0A"/><stop offset="0.5528" stop-color="#FFBF0C"/><stop offset="0.5632" stop-color="#FFBE0E"/><stop offset="0.5736" stop-color="#FFBE0F"/><stop offset="0.584" stop-color="#FFBE11"/><stop offset="0.5944" stop-color="#FFBD12"/><stop offset="0.6048" stop-color="#FFBD14"/><stop offset="0.6152" stop-color="#FFBC16"/><stop offset="0.6256" stop-color="#FFBC17"/><stop offset="0.636" stop-color="#FFBB18"/><stop offset="0.6464" stop-color="#FFBB1A"/><stop offset="0.6568" stop-color="#FFBA1B"/><stop offset="0.6672" stop-color="#FFBA1C"/><stop offset="0.6776" stop-color="#FFB91E"/><stop offset="0.688" stop-color="#FFB91F"/><stop offset="0.6984" stop-color="#FFB820"/><stop offset="0.7088" stop-color="#FFB721"/><stop offset="0.7192" stop-color="#FFB622"/><stop offset="0.7296" stop-color="#FFB624"/><stop offset="0.74" stop-color="#FFB525"/><stop offset="0.7504" stop-color="#FFB426"/><stop offset="0.7608" stop-color="#FFB327"/><stop offset="0.7712" stop-color="#FFB228"/><stop offset="0.7816" stop-color="#FFB128"/><stop offset="0.792" stop-color="#FFB129"/><stop offset="0.8024" stop-color="#FFB02A"/><stop offset="0.8128" stop-color="#FFAF2B"/><stop offset="0.8232" stop-color="#FFAE2C"/><stop offset="0.8336" stop-color="#FFAD2C"/><stop offset="0.844" stop-color="#FFAC2D"/><stop offset="0.8544" stop-color="#FFAA2E"/><stop offset="0.8648" stop-color="#FFA92E"/><stop offset="0.8752" stop-color="#FFA82F"/><stop offset="0.8856" stop-color="#FFA730"/><stop offset="0.896" stop-color="#FFA630"/><stop offset="0.9064" stop-color="#FFA530"/><stop offset="0.9168" stop-color="#FFA331"/><stop offset="0.9272" stop-color="#FFA231"/><stop offset="0.9376" stop-color="#FFA132"/><stop offset="0.948" stop-color="#FF9F32"/><stop offset="0.9584" stop-color="#FF9E32"/><stop offset="0.9688" stop-color="#FF9D32"/><stop offset="0.9792" stop-color="#FF9B32"/><stop offset="0.9896" stop-color="#FF9A32"/><stop offset="1" stop-color="#FF9933"/></linearGradient><linearGradient x1="241.358" y1="455.03" x2="233.931" y2="432.55" gradientUnits="userSpaceOnUse" spreadMethod="reflect" id="fill5"><stop offset="0" stop-color="#FF9933"/><stop offset="0.48" stop-color="#FFC000"/><stop offset="0.93" stop-color="#FF9933"/><stop offset="1" stop-color="#FF9933"/></linearGradient><linearGradient x1="420.281" y1="394.739" x2="413.117" y2="373.055" gradientUnits="userSpaceOnUse" spreadMethod="reflect" id="fill6"><stop offset="0" stop-color="#FF9933"/><stop offset="0.48" stop-color="#FFC000"/><stop offset="0.93" stop-color="#FF9933"/><stop offset="1" stop-color="#FF9933"/></linearGradient></defs><g clip-path="url(#clip1)" transform="translate(-25 -84)"><g clip-path="url(#clip2)" filter="url(#fx0)" transform="translate(24 83)"><g clip-path="url(#clip3)"><path d="M7.81401 182.258C4.87004 173.348 9.70647 163.739 18.6165 160.795L480.274 8.25829C489.184 5.31433 498.793 10.1508 501.737 19.0608L588.084 280.393C591.028 289.303 586.192 298.913 577.282 301.857L115.625 454.393C106.715 457.337 97.105 452.501 94.161 443.591Z" fill="#FF9933" fill-rule="evenodd"/></g></g><path d="M31.814 261.258C28.87 252.348 33.7065 242.739 42.6165 239.795L504.274 87.2583C513.184 84.3143 522.793 89.1508 525.737 98.0608L612.084 359.393C615.028 368.303 610.192 377.913 601.282 380.857L139.625 533.393C130.715 536.337 121.105 531.501 118.161 522.591Z" fill="#FF9933" fill-rule="evenodd"/><path d="M464.267 243.748C462.343 237.927 465.503 231.648 471.325 229.725L513.486 215.795C519.307 213.871 525.585 217.031 527.509 222.852L543.949 272.61C545.873 278.431 542.713 284.709 536.891 286.633L494.73 300.563C488.909 302.487 482.631 299.327 480.707 293.505Z" fill="url(#fill4)" fill-rule="evenodd"/><path d="M167.775 458.565C167.091 456.495 168.214 454.264 170.284 453.58L297.578 411.521C299.648 410.837 301.879 411.96 302.563 414.029L307.514 429.015C308.198 431.084 307.075 433.316 305.006 434L177.711 476.059C175.642 476.743 173.41 475.62 172.727 473.551Z" fill="url(#fill5)" fill-rule="evenodd"/><path d="M333.668 403.315C333.008 401.319 334.092 399.166 336.088 398.506L490.146 347.604C492.142 346.944 494.294 348.028 494.954 350.024L499.73 364.48C500.39 366.476 499.306 368.629 497.31 369.288L343.253 420.191C341.257 420.85 339.104 419.767 338.444 417.771Z" fill="url(#fill6)" fill-rule="evenodd"/></g></svg>