<svg width="1283" height="723" xmlns="http://www.w3.org/2000/svg" xmlns:xlink="http://www.w3.org/1999/xlink" overflow="hidden"><defs><clipPath id="clip0"><rect x="-2" y="-2" width="1283" height="723"/></clipPath></defs><g clip-path="url(#clip0)" transform="translate(2 2)"><rect x="352" y="186" width="114" height="154" fill="#F12354" fill-opacity="0.921569"/><rect x="566" y="155" width="114" height="154" fill="#BC0031" fill-opacity="0.25098"/><rect x="526" y="456" width="114" height="154" fill="#BC0031" fill-opacity="0.25098"/><rect x="633" y="264" width="114" height="154" fill="#C20230" fill-opacity="0.2"/><rect x="105" y="323" width="114" height="154" fill="#E6003C" fill-opacity="0.741176"/><rect x="171" y="432" width="114" height="154" fill="#F12354" fill-opacity="0.768627"/><rect x="0" y="17" width="114" height="154" fill="#C70230" fill-opacity="0.2"/><rect x="66" y="126" width="114" height="154" fill="#F12354" fill-opacity="0.768627"/><rect x="228" y="509" width="114" height="154" fill="#C70230" fill-opacity="0.921569"/><rect x="606" y="566" width="115" height="154" fill="#02383C" fill-opacity="0.0588235"/><rect x="669" y="201" width="155" height="114" fill="#02383C" fill-opacity="0.0588235"/><rect x="422" y="466" width="93" height="75" fill="#02383C" fill-opacity="0.0588235"/><rect x="828" y="153" width="114" height="154" fill="#C70230" fill-opacity="0.2"/><rect x="1041" y="123" width="114" height="154" fill="#C70230" fill-opacity="0.831373"/><rect x="1000" y="424" width="115" height="154" fill="#EE2626" fill-opacity="0.619608"/><rect x="1073" y="197" width="114" height="154" fill="#EE2626" fill-opacity="0.619608"/><rect x="579" y="290" width="115" height="154" fill="#E6003C" fill-opacity="0.301961"/><rect x="646" y="399" width="114" height="155" fill="#C20230" fill-opacity="0.768627"/><rect x="475" y="0" width="114" height="139" fill="#C70230" fill-opacity="0.2"/><rect x="541" y="93" width="114" height="154" fill="#C20230" fill-opacity="0.768627"/><rect x="673" y="580" width="154" height="114" fill="#FA0043" fill-opacity="0.921569"/><rect x="1126" y="586" width="69" height="101" fill="#02383C" fill-opacity="0.0588235"/><rect x="1144" y="168" width="136" height="115" fill="#02383C" fill-opacity="0.0588235"/><rect x="880" y="387" width="93" height="75" fill="#02383C" fill-opacity="0.2"/><rect x="198" y="303" width="155" height="114" fill="#F12354" fill-opacity="0.921569"/><rect x="416" y="272" width="154" height="115" fill="#F12354" fill-opacity="0.831373"/><rect x="375" y="573" width="155" height="115" fill="#C20230" fill-opacity="0.858824"/><rect x="930" y="54" width="154" height="114" fill="#EE2626" fill-opacity="0.619608"/><rect x="-8.71938e-15" y="441" width="110" height="114" fill="#C70230" fill-opacity="0.2"/><rect x="22" y="550" width="154" height="114" fill="#C20230" fill-opacity="0.2"/><rect x="0" y="243" width="70" height="114" fill="#C20230" fill-opacity="0.2"/><rect x="456" y="683" width="154" height="37" fill="#02383C" fill-opacity="0.0588235"/><rect x="883" y="674" width="115" height="46" fill="#02383C" fill-opacity="0.0588235"/><rect x="232" y="458" width="115" height="154" fill="#02383C" fill-opacity="0.0588235"/><rect x="304" y="57" width="114" height="155" fill="#C20230" fill-opacity="0.2"/><rect x="748" y="0" width="114" height="97" fill="#E6003C" fill-opacity="0.301961"/><rect x="-1" y="33" width="65" height="154" fill="#C20230" fill-opacity="0.768627"/><rect x="6" y="110" width="114" height="154" fill="#E6003C" fill-opacity="0.301961"/><rect x="430" y="220" width="69" height="101" fill="#02383C" fill-opacity="0.0588235"/><rect x="121" y="-1.99995" width="155" height="98" fill="#02383C" fill-opacity="0.0588235"/><rect x="779" y="478" width="115" height="154" fill="#F04242" fill-opacity="0.701961"/><rect x="229" y="509" width="114" height="154" fill="#F04242" fill-opacity="0.701961"/><rect x="647" y="399" width="114" height="154" fill="#E6003C" fill-opacity="0.301961"/><rect x="732" y="434" width="114" height="155" fill="#FA0043" fill-opacity="0.780392"/><rect x="377" y="573" width="154" height="114" fill="#FA0043" fill-opacity="0.780392"/><rect x="79" y="627" width="154" height="93" fill="#FA0043" fill-opacity="0.780392"/><rect x="670" y="201" width="154" height="114" fill="#02383C" fill-opacity="0.0588235"/><rect x="541" y="93" width="114" height="154" fill="#F04242" fill-opacity="0.701961"/></g></svg>