<svg width="1280" height="1391" xmlns="http://www.w3.org/2000/svg" xmlns:xlink="http://www.w3.org/1999/xlink" overflow="hidden"><defs><clipPath id="clip0"><rect x="-293" y="-276" width="1280" height="1391"/></clipPath></defs><g clip-path="url(#clip0)" transform="translate(293 276)"><text fill="#D20037" font-family="STCaiyun,STCaiyun_MSFontService,sans-serif" font-weight="400" font-size="661" transform="translate(104.72 543)">D</text><path d="M375 376 457.823 511.83" stroke="#D20037" stroke-width="20" stroke-miterlimit="8" fill="none" fill-rule="evenodd"/><path d="M496.5 317C496.5 308.44 504.335 301.5 514 301.5 523.665 301.5 531.5 308.44 531.5 317 531.5 325.56 523.665 332.5 514 332.5 504.335 332.5 496.5 325.56 496.5 317Z" stroke="#D20037" stroke-width="6.66667" stroke-miterlimit="8" fill="none" fill-rule="evenodd"/><text fill="#D20037" font-family="Sacramento,Sacramento_MSFontService,sans-serif" font-weight="700" font-size="69" transform="matrix(-1.83697e-16 -1 1 -1.83697e-16 105.35 560)">RedDoor Referral</text><path d="M375 376 457.823 511.83" stroke="#D20037" stroke-width="20" stroke-miterlimit="8" fill="none" fill-rule="evenodd"/><path d="M496.5 317C496.5 308.44 504.335 301.5 514 301.5 523.665 301.5 531.5 308.44 531.5 317 531.5 325.56 523.665 332.5 514 332.5 504.335 332.5 496.5 325.56 496.5 317Z" stroke="#D20037" stroke-width="6.66667" stroke-miterlimit="8" fill="none" fill-rule="evenodd"/><text fill="#D20037" font-family="Sacramento,Sacramento_MSFontService,sans-serif" font-weight="700" font-size="69" transform="matrix(-1.83697e-16 -1 1 -1.83697e-16 105.35 560)">RedDoor Referral</text></g></svg>