<svg width="241" height="250" xmlns="http://www.w3.org/2000/svg" xmlns:xlink="http://www.w3.org/1999/xlink" overflow="hidden"><defs><clipPath id="clip0"><rect x="741" y="120" width="241" height="250"/></clipPath><clipPath id="clip1"><rect x="742" y="120" width="240" height="250"/></clipPath><clipPath id="clip2"><rect x="742" y="120" width="240" height="250"/></clipPath></defs><g clip-path="url(#clip0)" transform="translate(-741 -120)"><g clip-path="url(#clip1)"><g clip-path="url(#clip2)"><text fill="#D20037" font-family="STCaiyun,STCaiyun_MSFontService,sans-serif" font-weight="400" font-size="661" transform="matrix(0.517589 0 0 0.518483 727.083 362)">D</text><path d="M161.488 270.699 204.356 341.003" stroke="#D20037" stroke-width="10.3518" stroke-miterlimit="8" fill="none" fill-rule="evenodd" transform="matrix(1 0 0 1.00173 705.665 4.68436)"/><path d="M224.375 239.644C224.375 235.213 228.43 231.621 233.432 231.621 238.435 231.621 242.49 235.213 242.49 239.644 242.49 244.074 238.435 247.666 233.432 247.666 228.43 247.666 224.375 244.074 224.375 239.644Z" stroke="#D20037" stroke-width="4.48577" stroke-miterlimit="8" fill="none" fill-rule="evenodd" transform="matrix(1 0 0 1.00173 705.665 4.68436)"/></g></g></g></svg>